<?xml version="1.0" encoding="utf-8"?>
<!-- Generator: Adobe Illustrator 18.0.0, SVG Export Plug-In . SVG Version: 6.00 Build 0)  -->
<!DOCTYPE svg PUBLIC "-//W3C//DTD SVG 1.1//EN" "http://www.w3.org/Graphics/SVG/1.1/DTD/svg11.dtd">
<svg version="1.1" xmlns="http://www.w3.org/2000/svg" xmlns:xlink="http://www.w3.org/1999/xlink" x="0px" y="0px"
	 viewBox="0 0 1500 1500" enable-background="new 0 0 1500 1500" xml:space="preserve">
<g id="Livello_2" display="none">
	<g display="inline">
		<g>
			<path fill="#3FB34F" d="M1009.4,908.4c1.5-5.5,2-11.5-1.9-16.1c-3.2-3.8-9-4.5-13.6-4.4c-8.5,0.2-24.7,5.1-24.7,15.9
				c0,5.7,5.4,9.8,9.8,12.4c6.5,3.9,13.3,5.4,20.7,6.5c8.8,1.3,18.1,2.1,27,0.7c5.5-0.8,14.7-3.4,13.8-10.5
				c-1-8-10.2-15.9-15.5-21.1c-6.1-6-13-12.5-20.8-16.3c-2.9-1.4-13.6,3-9.4,5c6.2,3.1,11.8,8.6,16.9,13.2
				c6,5.5,12.6,11.8,16.2,19.3c0.6,1.2,1.9,4.3,0.6,5.3c1.5-1.2-0.4-0.2-1.6,0c-2.2,0.3-4.5,0.2-6.7,0.1c-7.8-0.2-16.1-1.2-23.6-3.4
				c-7.5-2.3-22.9-13.5-11.7-20.2c1.7-1,2-1,3.6-1.3c1-0.2,2.9-0.1,4.9,0.6c4.8,1.7,6.1,7.1,5.6,11.7c-0.2,1.5-0.5,2.9-0.9,4.3
				C997,913.5,1008.5,911.8,1009.4,908.4L1009.4,908.4z"/>
		</g>
	</g>
	<g display="inline">
		<path fill="#FFFFFF" d="M997.9,856.4c0.2-83.2,19.7-193.8,91.6-250.1c24.5-19.2,62.6-24.8,73.3-56.5c9.4-27.8-16.6-91.4-31-114.3
			c-47.3-75.6-154.5-129.4-231.4-57.6c-47.6,44.4-19.1,108.4,7.9,151.4c-30.9-49.2-87-138.4-32.6-189.2
			c88-82.1,210.6-20.6,264.7,65.9c16.4,26.2,35.4,64.6,24.6,96.4c-12.3,36.2-55.8,55.4-83.8,77.4
			C998.9,644.1,998.1,761.3,997.9,856.4z"/>
		<g>
			<path fill="#3FB34F" d="M1003.7,855.7c0.2-46,5.6-92.4,19.3-136.5c13.4-43.2,36.9-88.6,75.2-114.7c17.6-12,38.5-18.2,54.7-32.3
				c7.5-6.5,13.4-15.2,16.2-24.8c2.4-8.2,1.7-17.3,0.6-25.6c-2.7-21.4-10.3-42.4-18.9-62.1c-7.9-18.2-17.9-34.8-30.7-50
				c-29.1-34.6-70.8-61.8-116.2-68c-22.5-3.1-45.2-0.5-66.4,7.9c-22.4,8.8-44.2,24.9-57,45.4c-27.2,43.6-1.8,97.9,22.4,136.5
				c3.6-1.6,7.1-3.1,10.7-4.7c-23.3-37.1-48.6-77-54.2-121.3c-2.7-21.3,1.7-43.1,16.1-59.5c15.6-17.7,38.1-30.7,60.7-36.9
				c44.1-12.1,90.7,2.8,127.9,26.9c40.1,26,73.1,65.8,90.4,110.5c4.9,12.6,8.1,26.1,7.6,39.7c-0.5,12.2-4.9,23.4-11.9,33.4
				c-13.3,19.1-34.5,31.6-53.4,44.2c-19.3,12.8-36.7,27.1-51.1,45.3c-14.1,17.8-24.5,38.4-32.2,59.7C992,728.8,992.2,794.3,992,857
				C992,862.2,1003.7,859.9,1003.7,855.7c0.2-89.1-0.5-195.6,68.1-262.7c31.6-30.9,83.2-46.5,98.9-91.4c8.8-25.1-1.2-53.4-12.5-76
				c-10.6-21.1-24.2-40.7-40.3-58c-31-33.2-72.1-59-117.1-67.2c-46.9-8.6-93.5,5.4-128.7,37.3c-13.1,11.9-21.5,27.3-24.2,44.8
				c-2.7,17.5,0.6,35.5,5.7,52.2c10.5,34.8,30.2,66.2,49.3,96.8c2.2,3.6,13.5-0.3,10.7-4.7c-22.9-36.6-46.7-86.9-23.7-128.9
				c11.6-21.2,34.7-37.2,57.2-44.9c21.2-7.2,43.9-6.9,65.5-1.6c45,11,84.3,42.8,110.1,80.6c10.9,16.1,18.6,34.3,25.1,52.6
				c6.5,18.5,13.3,39.9,10.6,59.7c-3,21.2-23,32.6-40.3,41.4c-9.6,4.9-19.3,9.5-28.3,15.6c-9.3,6.3-17.6,14.2-25.3,22.4
				c-32,34.2-50.2,79.3-60.6,124.4c-8.3,35.6-11.7,72.4-11.9,108.9C992,862.2,1003.7,859.9,1003.7,855.7z"/>
		</g>
	</g>
</g>
<g id="Livello_3">
	<g>
		<g>
			<path fill="#FFFFFF" d="M789.2,687.4c7.5,20,27,32.9,41.8,47.2c18.8,18.1,36.3,37.4,55.4,55.2c40.8,37.8,86,71.1,130.1,104.8
				c-0.1-1.2-0.1-2.3-0.2-3.5c-21.6,24.1-51.1,39.6-77.8,57.2c-14.3,9.4-27.7,20-41.6,30c-15.7,11.3-31.4,22.5-46.2,35
				c-4.5,3.8,2.6,6.1,5.6,3.5c14.8-12.5,30.5-23.7,46.2-35c14.3-10.3,28.2-21.1,42.9-30.8c26.9-17.7,56.3-33.4,78-57.7
				c1.1-1.2,1.1-2.5-0.2-3.5c-43.7-33.4-88.4-66.4-128.9-103.7c-18.8-17.4-36.4-36-54.5-54.2c-14.4-14.4-34.6-27-42.1-46.8
				C796.5,681.4,787.8,683.9,789.2,687.4L789.2,687.4z"/>
		</g>
	</g>
	<g>
		<g>
			<path fill="#FFFFFF" d="M198.1,256.7c-34.3,8.5-39.7,53.1-38.6,82.5c0.6,15.1,2.9,30.8,10.8,43.9c8,13.3,19.2,24.3,32.5,32.3
				c26.2,15.6,58.7,18.3,88.2,12.5c28.6-5.7,57.3-19.7,75.2-43.4c18.8-24.9,19.2-56.2,6.6-84c-13.1-28.9-38.4-47.7-68.7-55.8
				c-32.2-8.6-67-5.7-99,2.6c-33,8.6-65.1,24.1-91,46.6c-22.9,19.9-41.2,46.6-43.7,77.5c-2.6,31.8,11.3,61,33.5,83
				c24.8,24.5,57.6,40.4,89.9,52.4c34.2,12.7,70,21.2,105.9,27.5c27.3,4.8,55.4,9.2,83.2,9.2c31.2,0,63.4-4.3,92.7-15.2
				c24.4-9.1,51.3-26.4,49.3-55.9c-1.1-16-10-31.6-20.8-43.2c-12.5-13.4-29-22.6-45.6-29.7c-37.4-16.1-79.6-22.4-120-23.3
				c-35.4-0.8-75.4,2.6-103.8,26.3c-14.5,12-19.8,28.9-11,46.2c8,15.7,23,27.7,38.5,35.5c34.8,17.5,76.5,19.2,114.4,13.5
				c35.7-5.3,72.7-18.1,98.2-44.7c23.7-24.7,42.9-65.4,24-98.3c-9.7-16.9-27.9-26.2-46.2-30.9c-22.4-5.8-46.3-5.4-68.8-0.3
				c-45.4,10.1-88.8,39.6-109.7,82c-6.1,12.4-9.7,30,5.7,36.7c14.2,6.2,32.9,0.1,46.1-6c16-7.4,30.4-20,41.6-33.5
				c7.7-9.3,14.1-20.3,15.4-32.5c2.4-23-14.9-41.7-31.7-54.8c-23.6-18.5-51.5-31.5-78.7-43.7c-26.8-12.1-54.3-22.7-80.8-35.6
				c-9.2-4.5-18.5-9.3-26.6-15.7c-3.3-2.6,6.7-13.7,9-16c5.7-5.9,12.7-10.5,19.8-14.4c32.8-18,71.9-24.6,108.4-30.5
				c34.4-5.6,68.9-11.8,103.6-15.3c40.4-4.1,82.9-5,121.8,8.2c37.7,12.8,66.1,41.8,77,80.3c10.7,38.1,2.1,78.6-12.1,114.6
				c-16.3,41.4-40.8,79.4-67.2,115c-24.5,33-51.5,64.1-79.3,94.2c-35.5,38.3-72.5,75.1-113.4,107.7c-43.1,34.2-90.7,63.7-141.2,85.8
				c-37.9,16.6-87.4,33.7-126.2,10.4c-27-16.2-39-47.8-44.3-77.3c-6.1-34.4-4.3-70.3,1.1-104.6c5.4-34.6,15.6-67.3,31-98.8
				c22.6-46.4,55.4-91.9,100.5-118.6c10.3-6.1,30.1-14.9,36.7,0.8c5.5,13.1-5.3,28.1-14.1,36.6c2.8-0.4,5.5-0.9,8.3-1.3
				c-10.5-45.7,11.3-94.3,32.6-133.7c11.4-21,24.4-41.2,38.1-60.7c12.1-17.3,24.4-34.5,36.9-51.4c7.8-10.5,16.1-20.8,25.3-30.1
				c8.3-8.3,17.8-16.1,29-19.8c-2,0-4-0.1-5.9-0.1c-1.5,24.5-14.1,47.1-27.5,67.1c-14.2,21.2-30.7,40.7-46.3,60.9
				c-16.2,21.1-31,43.3-46.7,64.8c-17,23.2-33.7,46.8-47.8,71.9c-6.8,12.3-13.1,25-17.9,38.3c-3.3,9.2-5.5,19-4.7,28.8
				c1.4,16,14,25.8,27.9,31.5c18.4,7.6,38.9,10.1,58.4,13.4c22.9,3.8,45.9,7.2,69.1,8.8c24.1,1.6,48.5,1.3,72.3-3.3
				c22.1-4.3,45.2-12.9,61.5-29c35.9-35.7-65.5-57.2-84.4-61.2c-53.5-11.3-109.1-13.6-163.6-10c-16.1,1.1-34.8,2-48.8,11
				c-15.9,10.3,1.1,26.5,10.4,34.3c15,12.4,33.2,20.7,51.4,27.2c20.9,7.5,42.7,12.4,64.5,16.2c41.2,7.2,83.2,9.9,125,10.6
				c14.7,0.2,29.4,0,44-1.8c14.6-1.8,31.4-5.2,42.5-15.6c10.6-10,6.9-25.7-2.3-35.1c-12.9-13.2-33-20-50.3-24.7
				c-17-4.7-34.8-7.5-52.1-2.8c-7.9,2.2-15.5,6.2-19.9,13.2c-3.9,6.3-3.1,14.4-1.1,21.2c6,20.3,23.7,36.5,39.3,49.7
				c20.2,17,43,30.7,66.8,41.8c23.7,11,48.9,19.1,74.8,23.2c15,2.4,43.2,6.1,51.6-11.2c3.2-6.6,0.5-14.7-2.5-20.8
				c-4.4-9-11.3-17.1-18.5-23.9c-13.6-12.8-31.4-21.8-48.4-29c-18.1-7.6-38.8-13.8-58.7-11.4c-12.6,1.5-29.1,7.8-34.2,20.6
				c-3.9,9.8,4.3,19.1,11.2,24.9c11.3,9.6,25.4,16.2,39,21.8c13.2,5.4,26.9,9.9,40.8,13.1c9.7,2.3,20,4.4,30.1,3.4
				c1.5-0.2,5-1.1,5.1-3.1c0.7-22.1-14.8-43.2-25.6-61.3c-6-10.1-12-20.4-16.3-31.5c-3.5-9.2-5.3-19.2-7.1-28.8
				c-7.4-38.4-10.6-85.1,13.6-118.5c12.1-16.7,41.4-38.9,62-22.8c16.1,12.5,18.8,38,19.7,56.7c1.4,29.1-3,58.5-10,86.6
				c-6.9,27.5-16.8,55.2-32.4,79c-8.4,12.9-21.4,28.9-36.6,31.8c1.2,0.2,2.4,0.5,3.6,0.7c-6.3-10.2-7.5-23.1-7.6-34.8
				c-0.1-16.4,2.6-32.9,6.5-48.8c8-32.9,21.9-67.2,45.1-92.4c8.3-9,19.4-18.2,32.1-19.6c15.7-1.6,27.3,7.9,35.5,20.4
				c10.4,16,16.1,35.1,20.8,53.4c4.2,16.3,7.4,32.8,10.6,49.4c6,31.4,8.2,65.5,25.8,93.2c1.3,2.1,6.2,0.3,7.7-0.8
				c14.3-10.9,17.5-30.1,19-46.9c1.8-19,0.2-38.3,2.9-57.2c-2.9,0.6-5.8,1.2-8.7,1.9c-0.5,28.4-2.4,56.7,0.2,85.1
				c2.1,21.9,7.2,63.1,36.8,63.4c27.7,0.3,34.7-32.3,36.3-53.9c1.1-15-0.1-30.4-3.8-44.9c-2.7-10.5-7.3-22.9-16.9-29
				c-2.1-1.3-5.6,0-7.5,1.2c-14,8.9-16.6,28.4-16.4,43.6c0.1,16.4,4,36.5,16.4,48.2c6,5.7,14.1,12.9,22.9,11.1
				c8.4-1.7,16.5-8.3,20.9-15.5c8.6-14.1,3.9-34-0.5-48.7c-11-36.5-32-71.2-57.8-99c-33.3-36-76.9-60.8-123.7-74.6
				c-25.4-7.5-51.3-10.7-77.5-14c-15.5-2-31-3.7-46.7-4.1c-11-0.3-21.4,2.6-32.3,3c-4.3,0.2-9.6-0.6-12.1-4.5c-2.2-3.4-2.8-8-3.5-12
				c-1.4-9-1.4-18.2-2.6-27.3c-1.5-12-6.3-24.3-10.5-35.5c-4.7-12.9-10.6-25.4-18.1-37c-12.1-18.6-30.2-34.5-52-40.3
				c-20.7-5.5-42.5,0.5-58.6,14.2c-15.7,13.4-27.7,33.8-32.1,54c-3.7,16.8-1.1,34.2,5.8,49.8c14.1,31.5,43.6,54.5,72.8,71.3
				c29.9,17.2,63.6,30,97.9,34.4c0.9,0.1,8.3-1.1,7.1-3.2c-6.6-11.4-13.9-27.8-3.6-39.3c8.6-9.7,25-10.7,37-11.5
				c28.7-1.7,58.1,2,86.4,6.9c34.9,6,69.8,14.3,103.1,26.6c16.4,6,32.6,13.2,47.1,23.1c10.8,7.3,21.3,17,25.2,29.8
				c2.1-1.1,4.1-2.1,6.2-3.2c-12,0.6-21.5-9.2-30.3-16c-1.7-1.3-7.7,0-8.4,2.2c-6.1,21.6-2.6,46.6,1.1,68.2
				c2.2,13,5.3,25.9,9.6,38.4c3.3,9.5,7.3,19.2,13.5,27.2c1.5,1.9,7.6-0.5,8.4-2.2c10.9-24.2,13.6-53.2,12.5-79.5
				c-1-24.8-6.7-56.8-30.2-70.4c0,0.5-0.1,0.9-0.1,1.4c4-4.2,10.3-6.6,15.6-8.7c8.6-3.5,17.4-6.2,26.4-8.5
				c9.1-2.3,18.4-4.1,27.7-4.8c6.4-0.5,14.2-0.9,20.1,2.2c12.3,6.5,12.6,24.5,11.9,36.4c-1.1,19-6.3,37.7-11,56
				c-3,11.8-6.1,23.5-8.5,35.4c-1.7,8.7-3.4,18.2-2,27.1c0.4,2.7,7.8-0.4,8.7-1.9c22.2-38.8,25.6-86.9,22.4-130.6
				c-3.3-43.8-14.2-90.1-38.7-127.1c-25.7-38.8-65.8-72.7-111-85.6c-42.4-12.1-94,0.5-115.8,41.5c-7,13.1-9.4,28.6-5.7,43
				c4.3,16.9,17.2,28.7,31.4,37.7c32.2,20.3,72.5,30.3,110.2,32.6c0.8,0,8.4-1.2,7.1-3.2c-4.6-6.9-11.1-12.4-17.5-17.4
				c-8.1-6.5-17-12.1-26.3-16.6c-10.8-5.2-28.4-8.8-38.5,0.1c-11.9,10.5,42.7,37.9,48.6,40.9c8.7,4.4,18.1,9.7,27.7,11.9
				c12.3,2.8,25,4.5,37.5,5.7c16.4,1.5,33.3,1.9,49.6-1.2c12.3-2.3,27.2-7.3,32.7-19.7c6.8-15.2-9.7-31.1-24.7-30.6
				c-14.8,0.5-24.5,14.7-14.5,26.9c9.5,11.6,26.8,17.5,40.5,22.1c13.6,4.6,27.9,8.5,42.3,9.2c14.9,0.7,33.7-2.7,40.1-18.1
				c6.4-15.3-1.8-34.5-8.8-48.1c-10.7-20.7-26-39.4-42.5-55.8c-16.4-16.3-35.1-30.1-55.3-41.4c-80.9-45.1-180.3-44-267.4-19.5
				c-35.2,9.9-70.2,21.8-103.5,37c-17.9,8.1-35.4,17.5-51.2,29.2c-12.8,9.5-25,21.1-31.6,35.9c-0.1,0.3-0.1,0.6,0.2,0.9
				c8.2,5.9,19,8.5,28.7,10.8c14.3,3.4,28.9,5.4,43.5,6.5c14.5,1,29.3,0.9,43.6-1.4c10.8-1.8,22.9-5,30.9-12.9
				c7.3-7.3,5.8-17.5,1.4-26c-8.4-16.2-24-27.7-39.5-36.4c-36.7-20.6-80.2-29.8-121.6-35.1c-30.8-3.9-63-6.9-93.8-2
				c-14.5,2.3-30.8,6.8-41,18c-3,3.2-9.6,13-6.1,17.1c6.3,7.5,14.8,12.8,23.5,17.2c24.3,12.3,52.1,16.4,78.5,21.8
				c15.6,3.1,31,6.9,46.6,9.9c19.4,3.7,38.9,7.1,58.1,12.2c1.9,0.5,10.3-2.3,7.1-3.7c-11.4-4.8-25.1-2.7-32.2,8.3
				c-7.4,11.5-8.2,27-8.5,40.3c-0.3,13.2,0.6,26.6,2.9,39.6c1.8,10.4,6.7,20.2,11.5,29.5c15.4,30.3,35.5,61.4,61.8,83.2
				c10.2,8.5,22.8,15.8,36.5,15.2c9-0.4,24.7-5.6,25.7-16.4c0.9-10-10.5-18.6-17.5-23.8c-12.3-9.2-26.2-16.3-40-22.9
				c-24.6-11.8-49.9-22.8-77.9-18.5c-19.8,3.1-32.2,17.3-39.9,35c-9.5,21.7-11.8,47.9-8.9,71.2c2.4,19.1,11.3,36.3,26.3,48.6
				c12.1,9.9,29.8,11.6,38.6-3.5c7.7-13.2,5.9-29.7-2.5-41.9c-9-13-22.9-21.7-36.8-28.6c-15.9-7.8-33-13.1-50.3-16.6
				c-14.1-2.8-28.9-4.8-43.3-3.2c-16.1,1.8-30.4,10.9-42.4,21.3c-13.7,11.8-27.2,28-29.7,46.6c-1.1,8.3,1,16.1,5.8,22.9
				c4.6,6.5,12.1,9.8,19.6,11.6c18.5,4.4,39.1,1,56.9-4.8c9.2-3,18.9-7.3,25.7-14.4c0.7-0.7,0.4-1.3-0.4-1.7
				c-11.9-4.9-25.6-5.5-38.3-5.8c-17.5-0.4-35,1.2-52.2,4.4c-16.5,3.1-33.1,7.7-48,15.7c-11,5.9-22.1,14.7-25.3,27.4
				c-0.1,0.3-0.1,0.6,0.2,0.9c15.8,13.3,36.9,18.4,56.9,21.3c22.6,3.3,45.6,3.4,68.4,3.5c19.8,0,39.8,1.4,59.6,0.6
				c19.1-0.8,41.9-4.4,54.6-20.2c0.2-0.3,0.5-0.6,0.7-0.9c0.3-0.3,0.4-0.6,0.4-1c-13.1-19.4-39.3-22.8-60.8-20c-1.4,0.2-4.5,1-5,2.6
				c-8.3,26.1,20.4,50.7,38.7,64.1c12.8,9.3,26.8,17,41.5,22.8c11.3,4.4,23.7,7.8,35.9,6.3c1.2-0.1,4.7-1,5-2.6
				c2.5-13.1-2.1-26.4-8.7-37.7c-6.6-11.3-16.6-21.8-29.2-26.2c-1.9-0.6-7.2,0.2-7.8,2.5c-2.1,7.4-0.2,16.2,1.4,23.6
				c2.5,11,6.4,21.9,11.6,31.9c4,7.6,9.2,15.5,17,19.4c7.7,3.8,17.2,0,22.9-5.6c1.5-1.5-1.3-1.9-2.2-1.8c-2,0.1-4.3,0.7-5.8,2.2
				c-1.8,1.8-3.1,3-5.6,2.4c-3.1-0.8-5.7-2.9-7.9-5.1c-6.2-6-10.3-14.2-13.6-22c-3.7-8.5-6.5-17.5-8.3-26.6
				c-1.3-6.2-2.7-13.6-0.9-19.9c-2.6,0.8-5.2,1.7-7.8,2.5c11.9,4.1,21.1,14.3,27.6,24.8c6.5,10.7,11.2,24.1,8.8,36.7
				c1.7-0.9,3.4-1.7,5-2.6c-10.8,1.3-22.5-3.1-32.3-7c-14-5.6-27.2-13.3-39.4-22.1c-17.5-12.7-45.2-36.7-37.3-61.6
				c-1.7,0.9-3.4,1.7-5,2.6c11.4-1.5,23-0.5,33.8,3.5c5.2,1.9,9.9,4.8,14,8.5c0.7,0.6,6.1,5.6,5.4,6.5c-1.7,2.2-3.7,4.2-5.9,5.9
				c-8.2,6.5-19.2,8.5-29.3,9.5c-10.7,1-21.4,0.8-32.1,0.4c-42.9-1.4-88.2,3.3-129.6-10.2c-9.2-3-18.1-7.3-25.6-13.5
				c-1.4-1.2,1.9-6.6,2.7-7.9c1.7-2.9,4-5.5,6.5-7.8c11.6-11.1,28.5-16.3,43.7-20c17.5-4.3,35.6-6.1,53.6-6.3
				c13.4-0.1,28.4,0.3,41,5.5c-0.1-0.6-0.3-1.1-0.4-1.7c-5.6,5.8-13.5,9-20.9,11.5c-9.4,3.2-19.5,4.8-29.4,5.1
				c-17.7,0.6-36.7-4.5-40.7-24.1c-3.8-18.7,10.5-37.3,22.8-49.6c10.8-10.7,24.9-21.6,40.6-22.7c15.1-1,30.6,1.7,45.1,5.2
				c17.3,4.1,34.3,10.3,49.8,19.1c12.9,7.4,25.8,17.6,31.5,31.7c2.6,6.5,3.1,13.6,1.8,20.4c-1.2,6.3-4.9,19-13.2,17.3
				c-8.2-1.7-15.2-8.4-20.6-14.4c-6.1-6.7-11-14.5-14-23c-8-22.9-5.9-50.2,0.2-73.3c4.8-18.1,15-40.9,35.7-44.1
				c13.4-2.1,26.5,0.3,38.8,4.7c13.2,4.8,26,10.5,38.5,16.7c13.5,6.7,27,14.1,38.5,23.9c5.9,5,15.8,14.8,9.3,22.9
				c-7.7,9.7-21.7,5.2-30.7,0.2c-14.4-8-26.1-20.7-36.5-33.3c-11.6-14.1-21.7-29.5-30.7-45.3c-6.4-11.3-12.8-23.1-16.7-35.5
				c-3.2-10.2-3.7-21.7-4.2-32.4c-0.7-14.1-0.5-28.8,3.5-42.5c1.5-5.2,3.8-10.8,8-14.4c3.9-3.3,9-1.3,13.2,0.5
				c2.4-1.2,4.7-2.4,7.1-3.7c-30-8-61-11.9-91.2-19.2c-21-5-42.4-8.1-63.2-14c-10.9-3.1-21.6-6.8-31.6-12.2c-4.3-2.3-8.3-5-12.1-8
				c-1.8-1.4-3.5-3-5.1-4.7c-2-2-2.8-2.9-2.2-5.8c3.4-14.7,18.4-20.8,31.6-23.8c16.9-3.8,34.9-3.6,52.1-2.8
				c13.8,0.7,27.6,2,41.4,3.7c42,5.1,86.2,14.6,123.3,35.7c15.3,8.7,30.7,20.7,38.1,37.1c4,8.8,3.2,18.1-5.1,23.9
				c-9.1,6.3-22.2,7.2-32.9,7.8c-15.1,0.8-30.2-0.3-45.2-2.4c-13-1.8-26.1-4.4-38.5-8.9c-2.2-0.8-4.3-1.7-6.4-2.7
				c-0.9-0.4-1.7-0.9-2.5-1.3c-1.5-0.8-1.9-0.7-1.2-2.2c3.6-7.7,9.1-14.3,15-20.2c14.4-14.4,32.6-24.8,50.6-33.9
				c19.3-9.7,39.4-17.6,59.7-24.8c39.2-13.9,79.3-25.5,120.8-30.3c46.2-5.4,93.7-2.5,138.3,11c44.4,13.4,84.6,38.3,116.1,72.5
				c15.6,17,30,36.4,38.6,57.9c5.1,12.8,10,32.8-2.6,43c-6.9,5.6-17.3,5-25.6,4.2c-6.6-0.6-12.7-2-19.1-3.7
				c-15.3-4-31-9.2-44.6-17.5c-5.5-3.4-11.3-7.7-13.9-13.8c-2.1-4.9-0.2-15.4,6.7-14.8c8.6,0.8,17.6,8.9,20,17.1
				c1.8,6-1.5,12.9-5.6,17.1c-9.7,9.9-27.7,10.1-40.5,10.2c-15.7,0.2-31.5-1.5-47.1-4c-9-1.5-16.9-3.5-25.2-7.2
				c-13.1-5.8-25.9-12.6-38.1-20.1c-7.4-4.6-15.1-9.4-21.2-15.7c-1.8-1.8-3.6-3.9-4-6.5c-0.1-0.7,0.1-1.5,0.6-2.1
				c0.3-0.4,0.2-0.3,1.5-0.6c11.7-2.8,24.2,4.7,33.7,10.6c10.9,6.8,23.5,15.4,30.7,26.3c2.4-1.1,4.7-2.1,7.1-3.2
				c-25.7-1.5-51.2-7.2-75.3-16.1c-21.8-8.1-47.2-20-58.9-41.3c-10-18.3-6.7-40.2,3.7-57.5c12.2-20.3,34.1-32.8,57.3-35.8
				c24.4-3.2,49.4,4.7,70.8,16c21.8,11.5,41.3,27.5,58,45.5c14.9,16.1,27.1,34.1,36,54.1c9.2,20.7,15.2,42.8,19.3,65.1
				c5.3,29,6.8,58.9,4,88.2c-2.5,26.2-8.8,52.7-21.9,75.7c2.9-0.6,5.8-1.2,8.7-1.9c-2.4-14.6,2.7-30.7,6.1-44.8
				c4.6-18.8,9.9-37.4,13.2-56.5c2.4-14.3,4.9-31.4-1.8-44.9c-6.4-12.9-20.4-13.4-33.2-12.5c-16.2,1.1-32.4,5-47.9,10
				c-11,3.6-25.2,7.7-33.4,16.3c-0.3,0.3-0.7,1.1-0.1,1.4c23.4,13.5,28.6,45,29.7,69.6c1.2,25.9-1.7,54.7-12.5,78.6
				c2.8-0.7,5.6-1.5,8.4-2.2c-6-7.8-9.8-17.2-13-26.4c-4.2-12-7.1-24.6-9.3-37.1c-2.3-12.6-3.7-25.4-4.1-38.2
				c-0.3-10.1-0.1-20.6,2.7-30.4c-2.8,0.7-5.6,1.5-8.4,2.2c10.5,8.2,20.6,17.6,34.8,16.9c1.1-0.1,6.8-1.1,6.2-3.2
				c-3.8-12.9-14.3-22.6-25-30.1c-14.2-10.1-30.5-17.2-46.8-23.4c-34.1-12.9-70-21.3-105.9-27.5c-28.3-4.9-57.5-8.3-86.2-7.2
				C473,327,432.3,333,439,364.8c1.4,6.6,4.6,12.8,7.9,18.6c2.4-1.1,4.7-2.1,7.1-3.2c-38.1-4.9-75.6-20.4-107.7-41.1
				c-30.3-19.5-60.7-48-66.5-85.3c-2.9-18.7,2.2-37.3,11.5-53.5c11.6-20.3,30.1-39.5,55.3-37.6c23.1,1.7,42.9,18.2,56.3,36
				c16,21.4,25.6,49.1,31.4,74.9c1.9,8.4,1.5,17.4,2.4,25.9c0.8,6.9,1.7,16.8,9.1,19.9c9.4,3.9,20.7,1.1,30.3-0.4
				c13.7-2.2,28.3-0.2,42,1.3c27.7,2.9,55.7,6,82.7,12.9c24.1,6.1,47.5,15.2,69.2,27.3c39.7,22,73.7,54.7,96.5,93.9
				c9.3,16,17.4,32.9,23.2,50.5c5.1,15.4,10.1,35.1,2.1,50.4c-1,1.8-2.2,3.4-3.6,4.9c-1.6,1.7-5.8,6.1-8.3,6.3
				c-2.1,0.2-4.9-2.3-6.4-3.5c-2.9-2.1-5.8-4.3-8.5-6.6c-8-6.6-11.7-17.7-14-27.4c-2.8-11.6-3.3-24-1.3-35.8c1.5-9.3,5-20,13.4-25.4
				c-2.5,0.4-5,0.8-7.5,1.2c11.2,7.2,15.3,22.5,17.8,34.7c3.4,16.6,3.6,34.1,0.8,50.8c-2,11.6-6,28.3-17.4,34.4
				c-4,2.1-9.7,0.5-13.4-1.5c-5.1-2.8-8.8-7.5-11.6-12.5c-5.5-9.7-8-21-9.8-31.8c-2.1-12.8-3-25.8-3.3-38.8
				c-0.6-20.5,0.8-40.8,1.2-61.3c0-1.9-8.3-0.4-8.7,1.9c-2.5,17.4-1.4,35.1-2.5,52.6C707.4,514,705.3,536,691,547
				c2.6-0.3,5.2-0.5,7.7-0.8c-14.2-22.3-18.3-49.2-22.6-74.9c-3-18.2-6.6-36.4-10.6-54.4c-4.2-18.9-9.4-37.8-17.7-55.3
				c-6.5-13.6-16.2-28.4-31.7-32.3c-28.7-7.2-53.9,14.2-69.4,35.9c-20.2,28.2-32.5,62.6-38.6,96.5c-2.3,13-3.6,26.3-3,39.5
				c0.5,9.9,2.2,20.3,7.4,28.9c0.7,1.1,2.5,0.9,3.6,0.7c22.1-4.3,37.4-22.1,48.8-40.3c15.2-24.4,24.7-52.4,31.4-80.2
				c6.7-27.8,10.5-56.8,8.9-85.4c-1.1-18.8-4.5-43-20.5-55.5c-19.2-14.9-48.3-0.7-64.2,12.3c-32,26.2-35.6,71-31.7,109.3
				c2.5,24.8,7.3,49.7,19.2,71.7c7,13,15.2,25.3,22.2,38.3c6.1,11.3,12,23.9,11.5,37c1.7-1,3.4-2,5.1-3.1
				c-10.1,1.1-23.6-2.8-33.9-5.7c-15.6-4.3-31-10-45.5-17.1c-11.5-5.6-24.8-12.9-32.1-23.8c-6.6-10-1.4-19,7.7-24.9
				c15.6-10.3,38.8-3.4,54.9,2c19.2,6.4,38,16,54.1,28.4c7.8,6,14.6,13.5,20,21.8c4.3,6.5,8.5,15,6.9,23
				c-1.7,8.8-10.7,10.4-18.3,10.6c-12.9,0.3-26.4-2.6-38.9-5.6c-51-12.1-101.1-39-137.8-76.7c-11.4-11.7-27.2-31.3-21.8-49
				c5.3-17.6,30.3-14.8,44.1-12.3c19.2,3.4,39.2,10,55.4,21c11.3,7.7,22.2,23.3,12.2,36.4c-8.8,11.4-27.8,13.1-40.9,14.3
				c-14.7,1.3-29.5,1.1-44.3,0.7c-43.1-1-86.5-4.4-128.9-13c-21.5-4.3-42.7-10.2-62.9-18.7c-17.5-7.4-35.6-17.6-47.9-32.5
				c-4.3-5.2-7.4-12.5-1.9-17.9c5-4.9,14.3-6,20.9-7c22.1-3.5,45-3.5,67.3-3.4c56,0.3,113.3,7,166.1,26.7c13.3,5,44.3,16.4,34.3,36
				c-5.4,10.6-18.6,17.6-28.9,22.4c-10.6,5-22.2,7.9-33.7,9.9c-46.8,8-95.5-0.5-141.8-8.4c-18.7-3.2-39.3-6-55.9-15.9
				c-15.4-9.2-19.4-24.8-16-41.6c2.6-12.7,8.4-24.9,14.1-36.4c6.4-13,13.8-25.4,21.5-37.6c15.9-24.9,33.9-48.4,51.2-72.3
				c10-13.9,19.5-28.2,30-41.7c10.6-13.6,21.5-27,31.9-40.8c19-25.3,38.9-54.4,41-87c0.1-1.8-5.4-0.3-5.9-0.1
				c-20.9,6.9-36.8,24.6-50.2,41.2c-13.7,17-25.8,35.3-38.7,53c-27.6,38.1-53.4,78.8-69.5,123.3c-9.4,26.2-15.5,55.5-9.2,83.1
				c0.6,2.6,7.3-0.4,8.3-1.3c10.3-9.9,22.8-28.8,12.4-42.8c-4.3-5.8-12.4-6.8-19-6.3c-11.4,0.8-22,6.1-31.6,11.9
				C101.9,387,70,430.4,47,475.2C30.7,507,19.8,540.3,13.9,575.6c-5.7,34-7.7,69.3-2.8,103.5c4.3,29.8,15.1,61.4,40,80.2
				c32.7,24.7,77.4,16.5,113.3,4.6c24.9-8.2,48.7-19.7,71.7-32.1c23.5-12.6,46.5-26.3,68.4-41.5c48.1-33.4,91.5-73.3,131.7-115.8
				c56.3-59.6,111.9-122.7,149.7-196c18.3-35.5,32.7-75,31.9-115.5c-0.7-38.2-18.1-75.1-49.4-97.5c-32-22.8-73.4-28.1-111.7-28.1
				c-39.9-0.1-79.6,6.2-118.9,12.7c-33.2,5.5-66.6,10-99.2,19c-18.2,5-36.4,11.2-52.8,20.6c-12.8,7.3-25.4,17.4-30.7,31.6
				c-0.1,0.3-0.1,0.6,0.2,0.9c7.5,6.4,16.4,11.1,25.2,15.5c12,6.1,24.4,11.5,36.7,16.8c28.9,12.5,58,24.4,85.9,39.1
				c22.9,12.1,48.4,26.6,62.9,48.8c5.6,8.6,9,18.8,8,29.1c-1.1,12.4-8,23.6-15.9,32.9c-11.7,13.8-26.7,26.3-43.8,32.6
				c-11.3,4.2-30.8,7-36.2-7.4c-3-7.9,0.5-17.1,3.7-24.4c5.1-11.2,12.6-21.5,20.7-30.7c16.1-18.3,37-32.4,59.7-41.3
				c22.6-8.8,47.2-11.7,71.1-8.3c20.4,2.9,41.3,11.1,53.9,28.2c23.5,31.7,2.7,75.2-20.8,100.1c-25.6,27.2-64.7,38.5-100.9,42
				c-37.7,3.7-80.3-0.9-111.5-24.2c-14.1-10.5-29.5-28.2-26.2-47.1c3.2-18.9,23.8-29.8,40-35.8c16.4-6.1,33.8-7.7,51.1-8.1
				c19.9-0.5,39.8,1,59.4,3.7c38.7,5.4,81.3,16.3,111.4,42.7c21.8,19.1,37.4,54.4,15.2,78.9c-9.5,10.5-23.2,16.8-36.3,21.5
				c-15.2,5.3-31.1,8.3-47,10.3c-27.2,3.4-53.6,1.9-80.7-1.5c-34.3-4.3-68.5-10.8-101.8-20.2c-35.2-9.8-70.3-22.9-101-43.2
				c-26.6-17.5-49.7-41.9-57.2-73.7c-7.3-31,2.5-61.8,22.2-86.1c21.2-26.1,51.4-44.3,82.7-55.8c31.5-11.6,66.4-16.5,99.7-10.9
				c30.6,5.2,58.9,21.5,74.3,49c15.4,27.4,18.4,60.5,0.1,87.3c-33.6,49.3-113.5,59.1-159.6,23c-10.3-8.1-19.5-18.9-25-30.9
				c-5.5-12.1-6.9-26.3-7.3-39.5c-0.5-15.7,1.3-31.7,6.5-46.5c4-11.6,11.6-25,24.4-28.1c0.9-0.2,4.3-1.3,3.9-2.8
				C202.5,255.6,199,256.4,198.1,256.7L198.1,256.7z"/>
		</g>
	</g>
	<g>
		<g>
			<path fill="#FFFFFF" d="M647.2,727.1c2.1,0,4.4-0.5,6.1-1.6c1.4-0.8,1.2-1.9-0.5-1.9c-2.1,0-4.4,0.5-6.1,1.6
				C645.3,726.1,645.5,727.1,647.2,727.1L647.2,727.1z"/>
		</g>
	</g>
	<g>
		<g>
			<path fill="#FFFFFF" d="M846.7,699.4c2,0,4.6-0.6,5.7-2.5c1.1-1.7-0.9-2.9-2.5-2.9c-2,0-4.6,0.6-5.7,2.5
				C843.2,698.2,845.1,699.4,846.7,699.4L846.7,699.4z"/>
		</g>
	</g>
	<g>
		<g>
			<path fill="#FFFFFF" d="M600.4,1072.7c16.5-16,42.6-27.4,65.8-24c21.7,3.2,36.4,23.5,49.4,39.2c13.5,16.3,29.1,33,51.2,36.1
				c20.3,2.8,35.1-10.8,49.6-22.6c10.6-8.6,21.7-14.5,35.7-13.8c15.3,0.7,30,9.1,41.3,19c2.2,1.9,10.3-1.4,8.1-3.3
				c-19.3-16.7-44.6-25.3-69.4-16.8c-18.9,6.5-30.2,25-48.5,32c-10.2,3.8-21.9-0.8-30.7-5.9c-9.4-5.5-17.1-13.7-24.1-21.9
				c-13.6-15.7-25.8-34-45.3-42.9c-14.7-6.7-32.1-4.6-47.2-0.2c-15.6,4.6-31,12.6-42.7,24C589.9,1075,598.5,1074.5,600.4,1072.7
				L600.4,1072.7z"/>
		</g>
	</g>
	<g>
		<g>
			<path fill="#FFFFFF" d="M764.3,1353.2c37.2-3.4,65.9-28.9,87-57.9c23.7-32.6,39.9-70.7,52.1-108.9c3.9-12.3,7.3-24.7,10.1-37.3
				c1.9-8.5,3.9-16.9,7.1-25c2.1-5.2,5.3-12.9,10.8-15.5c-1.5,0.3-1.7,0.4-0.6,0.4c0.8,0.1,1.6,0.3,2.4,0.6c1.4,0.5,2.6,1.3,3.9,2.1
				c3.6,2.4,6.4,5.9,9,9.4c6.9,9.2,12.1,19.9,15.8,30.8c7.3,21.4,7.4,44.5,7.5,66.8c0,1.2,8.7,0,8.7-2.3
				c-0.1-28.4-1.1-56.9-14.2-82.7c-7.5-14.8-21.2-36.3-40.1-24.4c-6.9,4.3-10.4,12.7-13,20c-3.4,9.2-5.1,18.9-7.3,28.4
				c-4.1,17.3-9.5,34.3-15.5,50.9c-11.6,31.8-26.4,62.9-46.5,90.3c-17.5,23.8-42.2,48.3-73.2,51.1
				C766,1350.2,758.6,1353.7,764.3,1353.2L764.3,1353.2z"/>
		</g>
	</g>
	<g>
		<g>
			<path fill="#FFFFFF" d="M970.8,1184.1c15.8-0.7,31.5,2.3,44.3,12c13.4,10,20.5,26,24.4,41.8c0.4,1.7,9.1-0.5,8.7-2.3
				c-3.9-16.3-11.4-31.8-24.8-42.3c-13.2-10.3-30.5-13.2-46.8-12.4c-2.1,0.1-4.3,0.6-6.1,1.6C969,1183.3,969.1,1184.2,970.8,1184.1
				L970.8,1184.1z"/>
		</g>
	</g>
	<g>
		<g>
			<path fill="#FFFFFF" d="M1037.1,1219.2c17.7,4.8,33.1,14.6,43.7,29.7c10.1,14.5,14.5,32.3,16.2,49.6c0.2,1.5,8.9-0.1,8.7-2.3
				c-1.8-18.3-6.8-36.5-17.6-51.6c-10.6-14.8-26.4-24-43.8-28.7c-1.8-0.5-4.4,0.4-6.1,1.1
				C1037.4,1217.4,1035.2,1218.7,1037.1,1219.2L1037.1,1219.2z"/>
		</g>
	</g>
	<g>
		<g>
			<path fill="#FFFFFF" d="M1087,1262.4c14.3,0.8,26.8,6.6,34.9,18.6c8,11.8,10.3,27,10.4,41.1c0.2,30.5-9.9,64.3-29.4,88.2
				c-3.8,4.6-8.1,8.9-13.2,12c-5,3.1-0.4,8.2,3.9,5.5c25-15.3,37.7-47.2,43.8-74.5c6.1-27,7.4-63.2-14.2-84.1
				c-9-8.7-21-12.8-33.4-13.5c-2.2-0.1-4.7,0.6-5.6,2.7C1083.5,1260.4,1085.1,1262.3,1087,1262.4L1087,1262.4z"/>
		</g>
	</g>
	<g>
		<g>
			<path fill="#FFFFFF" d="M1254.8,964c2.1,0,4.4-0.6,6.1-1.6c1.4-0.8,1.2-1.8-0.5-1.8c-2.1,0-4.4,0.6-6.1,1.6
				C1252.9,963.1,1253.1,964,1254.8,964L1254.8,964z"/>
		</g>
	</g>
	<circle fill="#FFFFFF" stroke="#000000" stroke-width="3" stroke-miterlimit="10" cx="656.6" cy="718.1" r="21.4"/>
	<circle fill="#FFFFFF" stroke="#000000" stroke-width="3" stroke-miterlimit="10" cx="840.6" cy="682.3" r="16.6"/>
	<ellipse stroke="#FFFFFF" stroke-width="3" stroke-miterlimit="10" cx="848.3" cy="691.5" rx="0" ry="5.2"/>
	<g>
		<path fill="#FDF8CB" d="M1080.4,347.9c0-44.6-11.1-115.6,21-151.7c57.2-64.2,142.9-10.5,174.1,51.3c11.6,23,28.7,71.1,12.2,95.2
			c-16.6,24.3-65.3,26.8-91.2,28.5c-37.8,2.4-74.2,0.5-109.1,16.3"/>
		<g>
			<path fill="#FFFFFF" d="M1084.7,346.7c0-22.3-2-44.6-1.8-66.9c0.1-22.9,2.1-46.8,11.9-67.8c9.6-20.5,30.2-37.4,52.5-41.7
				c21.7-4.2,44.1,2.9,62.8,13.7c39.4,22.6,65.3,62.2,76.2,105.6c5,19.9,8.1,46-9.5,60.7c-16,13.4-40.1,15.7-60,17.5
				c-43.9,4-89.8,0.1-131,18.4c-5.6,2.5-0.3,4.1,3.2,2.5c28.2-12.6,58.9-13.4,89.3-14.8c21.8-0.9,43.9-2,65.3-6.4
				c18.3-3.8,39.4-10.6,49.7-27.5c11.2-18.4,4.7-44.8-1.2-63.8c-13.1-42-41.1-79.1-80.7-99.2c-18.6-9.4-39.3-13.9-60-10.9
				c-22.1,3.2-42.3,15.8-56.2,33c-16,19.8-19.5,47-20.6,71.5c-1.2,26.1,1.5,52.2,1.6,78.3C1076.1,351,1084.8,349.6,1084.7,346.7
				L1084.7,346.7z"/>
		</g>
	</g>
	<g>
		<g>
			<path fill="#FFFFFF" d="M1036.5,380.5c-15,6.5-30.2,16.9-37.7,31.8c-6.7,13.3-2.5,32.5,11.7,39.2c12.2,5.7,26.5,0.4,36.8-6.8
				c8.1-5.6,19.6-16.9,16.5-27.9c-1.1-3.9-9.8-1.5-8.7,2.3c2.3,8.1-6.3,16.2-11.9,20.6c-7.4,5.8-18.5,10.8-27.6,6
				c-12.4-6.6-13.4-23.7-7.3-34.7c6.6-12,19.9-20.3,32.1-25.6C1045.8,383,1040.9,378.6,1036.5,380.5L1036.5,380.5z"/>
		</g>
	</g>
	<g>
		<g>
			<path fill="#FFFFFF" d="M955,433.7c11.1,10.7,27.2,3.7,31.8-9.7c1.6-4.6,1.6-10.9-2.7-14.1c-6.9-5.3-17.6-1.5-24.5,1.6
				c-1.1,0.5-3.7,2.1-2.3,3.6c1.3,1.4,4.2,0.8,5.8,0.1c3.9-1.7,9.9-4.5,13.5-1.4c2.9,2.4,2.6,6.8,1.8,10.1c-0.9,3.7-3.4,7.7-6.3,9.6
				c-0.8,0.5-0.8,0.5-1.2,0.6c-0.3,0.1-0.7,0.2-1.3,0.1c-2.6-0.4-4.8-2.1-6.6-3.8C960.8,428,952.6,431.3,955,433.7L955,433.7z"/>
		</g>
	</g>
	<g>
		<g>
			<path fill="#FFFFFF" d="M896.8,449c17.2,3.5,32.3-8.2,32.6-25.9c0.1-6.7-2.1-13.5-7.4-17.8c-6.7-5.3-16.4-2.9-23.2,0.8
				c-5.2,2.8-0.5,7.3,3.8,5c4.4-2.4,8.9-3.9,13.1-0.5c3.7,3,4.9,8.8,4.9,13.2c0,5.4-1.6,10.9-5.1,15.1c-4,4.8-9.9,5.1-15.6,3.9
				C895.7,442,891.1,447.9,896.8,449L896.8,449z"/>
		</g>
	</g>
	<g>
		<g>
			<path fill="#FFFFFF" d="M873.3,464.6c-3.3,6.5-6.7,15.3-2.7,22.2c3.1,5.4,9.7,6.5,15.4,5.1c7-1.6,12.2-6.6,15-13.2
				c1.8-4.3,2.1-9.2,2-13.8c-0.1-2.9,0.1-5.2-2.4-6.8c-2.8-1.8-6.9-1.1-9.8-0.2c-1.2,0.3-4.3,1.5-3.8,3.2c0.5,1.7,3.7,1.2,4.9,0.9
				c4.9-1.4,1.1,16.5-0.2,19.2c-1,2.1-2.5,4-4.3,5.4c-0.6,0.5-1.3,0.8-1.8,1c0.4-0.2-0.8,0.1-0.7,0.1c-3,0.1-5.6-2.7-6.6-5.5
				c-2-5.7,0.5-12.5,3.1-17.5C883.2,461,874.5,462.2,873.3,464.6L873.3,464.6z"/>
		</g>
	</g>
	<g>
		<g>
			<path d="M1078.8,322.7c19-4.5,38-10.3,55-19.8c16-8.9,31-22.1,33.4-41.2c0.5-4.4,0.2-9.9-3.9-12.5c-4.1-2.6-9.6-1.1-13.6,0.8
				c-10.6,4.9-18.9,15.8-22.3,26.8c-4.1,13,3.1,24.9,15.3,30c12.3,5.2,28.3,4.4,41.2,2.8c12.8-1.5,29.3-5.1,36.7-16.8
				c6.4-10.1-1.8-25.5-12.4-29c-17.7-5.9-35.4,15.8-44.9,27.5c-11.1,13.7-20.8,30.4-30.5,43.9c-3.2,4.4,5,5.3,7.2,2.3
				c15.7-21.9,28.4-48.5,51-64.4c3.6-2.5,8.2-5,12.7-3.5c5.5,1.8,8.9,8.9,10.1,14.1c2.9,13.4-15.8,17.9-25.3,19.4
				c-12.8,2.1-28.4,3-40.7-1.9c-13.1-5.2-15.1-19.1-9.3-30.5c2.6-5.1,6.4-9.8,11-13.3c1.4-1.1,3.7-2.6,4.9-3
				c1.7-0.6,1.8-0.7,2.6-0.1c3.7,2.3,1.2,11.5,0.3,14.8c-2.5,9.2-9.5,16.7-16.8,22.4c-17.9,13.9-41.3,20.6-63,25.8
				C1071.9,318.4,1073.5,324,1078.8,322.7L1078.8,322.7z"/>
		</g>
	</g>
</g>
<g id="Livello_1" display="none">
	<g display="inline">
		<path fill="#FFDC38" stroke="#000000" stroke-width="6" stroke-miterlimit="10" d="M140.2,1108.9c0-22.3,3.9-42.5,11.7-60.5
			c7.8-18,18.4-33.4,31.8-46.3c13.4-12.8,29-22.7,46.9-29.5c17.9-6.8,36.9-10.3,57-10.3c15.9,0,30.1,1.5,42.5,4.6
			c12.4,3.1,23.1,6.6,32,10.5c10.3,4.5,19.3,9.4,26.8,14.7l-44,77.5c-4.5-3.4-9.4-6.6-14.7-9.6c-4.8-2.2-10.4-4.4-17-6.5
			c-6.6-2.1-14-3.1-22.4-3.1c-8.7,0-16.6,1.5-23.9,4.6c-7.3,3.1-13.6,7.3-19.1,12.6c-5.4,5.3-9.7,11.5-12.8,18.6
			c-1.5,3.6-2.7,7.2-3.5,11c-6.9,37.6,18.2,80,61.2,70.5c4.5-0.1,8.7-0.4,12.7-0.9c4-0.6,7.7-1.4,11.2-2.5c7-2.2,12.8-4.7,17.6-7.5
			c5.6-3.1,10.5-6.7,14.7-10.9l44,77.5c-7.5,6.1-16.5,11.6-26.8,16.3c-8.9,3.9-19.7,7.5-32.2,10.9c-6.3,1.7-13,2.9-20.2,3.8
			c-3.6,0.4-7.3,0.7-11.2,1.1c-5.7-1.4-11.9,1.8-18.2,3.3c-25.1,9.4-42.3,47.1-61.2,34.5c-45.5-32.9-56.5-92.5-78.1-143.2
			c-0.8-3.2-1.6-6.5-2.2-9.8C141.1,1130.2,140.2,1119.8,140.2,1108.9z M192.8,1109c0-3.4,0.2-6.8,0.5-10c0.9-9.7,3-19,6.5-27.8
			c4.6-11.7,11.1-21.9,19.5-30.6c8.4-8.7,18.6-15.5,30.6-20.5c12-5,25.4-7.5,40.2-7.5c7.3,0,13.7,0.5,19.5,1.5
			c5.7,1,10.5,2.2,14.4,3.6c4.7,1.4,8.8,3.1,12.1,5l5.9-10.1c-4.5-2-9.2-3.8-14.2-5.4c-4.8-1.4-10.2-2.6-16.3-3.8
			c-6.1-1.1-13.3-1.7-21.4-1.7c-14.2,0-27.8,2.5-40.8,7.5c-13,5-24.4,12.2-34.3,21.6c-9.9,9.4-17.9,20.7-23.9,33.9
			c-4.5,9.9-7.3,20.7-8.4,32.3c-0.4,3.9-0.6,7.9-0.6,11.9c5.2,46.2,9.9,119.9,55.4,132.5c20.4,4.7,39.2-29.8,66.7-25.8
			c3.8-0.3,7.3-0.9,10.7-1.6c6.7-1.4,12.4-2.9,17.2-4.6c5.3-1.9,10.1-4.2,14.2-6.7l-5.9-10.1c-3.6,2.5-7.8,4.6-12.6,6.3
			c-4.2,1.7-9.2,3.1-15.1,4.4c-2.9,0.6-6.1,1.1-9.5,1.4c-3.4,0.3-7.1,0.5-11.1,0.8c-21.8,1.4-39,28.1-56.3,18.6
			c-32.9-18.8-37.6-67.4-42.6-104.5C192.9,1116,192.8,1112.5,192.8,1109z"/>
		<path fill="#ED433D" stroke="#000000" stroke-width="6" stroke-miterlimit="10" d="M363.1,1122.4c0-12.8,2.4-24.9,7.3-36.3
			c4.9-11.4,11.6-21.3,20-29.8c8.5-8.5,18.4-15.1,29.8-20c8.5-3.7,17.5-6,26.8-6.9c3.1-0.3,6.3-0.5,9.5-0.5
			c38.6,1.9,74.6,30.9,89.3,65.8c0.9,2.9,1.7,5.9,2.3,8.9c1.2,6.1,1.8,12.3,1.8,18.7c0,12.8-2.4,24.9-7.3,36.3
			c-4.9,11.4-11.6,21.3-20,29.8c-4.2,4.2-8.8,8-13.8,11.3c-2.5,1.7-5.1,3.2-7.8,4.8c-29.9,35.2-69.9,31.2-96.8-4.7
			c-2.5-1.8-4.9-3.6-7.2-5.5s-4.5-3.9-6.6-6c-8.5-8.5-15.1-18.4-20-29.8C365.5,1147.3,363.1,1135.2,363.1,1122.4z M388.2,1122.4
			c0,9.4,1.8,18.3,5.3,26.6c2.7,6.2,6.1,11.8,10.3,16.9c1.4,1.7,2.9,3.3,4.4,4.9c17,12.2,25,42.2,46,41.2c22-2,32-29,50.7-41.1
			c2-2.1,4.1-4.5,6-7c13.7-17.8,23.4-44.7,3.3-57.8c-17-11-27-27-40-41c-8-9-19-12-31.3-9.5c-2.2,0.4-4.4,1-6.5,1.7
			c-2.1,0.7-4.2,1.4-6.3,2.3c-8.3,3.6-15.5,8.5-21.8,14.7c-6.2,6.2-11.1,13.5-14.7,21.8C390,1104.1,388.2,1113,388.2,1122.4z
			 M454.3,1204.5c-19.2-5.6-27.2-26.6-41.2-38.5c-2.8-3-5.3-6-7.5-9.2c-2.2-3.2-4.1-6.7-5.7-10.4c-3.2-7.4-4.8-15.4-4.8-23.9
			s1.6-16.5,4.8-23.9c3.2-7.4,7.6-13.9,13.2-19.5s12.1-10,19.5-13.2c3.7-1.6,7.5-2.8,11.6-3.5c12.8-2.2,23.1,6,30.9,15.9
			c0.3,0.4-0.1,0.6-2.2,0c-20.7-5.3-45.7,3.7-53.7,24.7c13-26,49-31,71-12c5,5,10,10,12.8,17.4c0.6,1.1,1.2,2.3,1.7,3.4
			c1.1,0.8,2.3,1.5,3.4,2.1c18,10,8,34-3,47c-2,2.5-4,4.8-6.4,7.1c-13.6,9.9-23.6,23.9-38.1,34.5
			C458.6,1203.6,456.5,1204.3,454.3,1204.5z M491.2,1116.4c-7.1-18.5-23.1-34.5-44.1-32.5c-5,1-9,4-13,7c-3,2-6,5-8,8c-2,4-5,7-6,11
			c-2,11-1,22,4,32c2,4,6,7,9,9c5,3,10,5,16,6s11-1,17-3c5-2,8-6,12-10s4-10,5-15c1-7-3-12-6-18c-2-2-4-4-6-6c9,3,15,12,16,21
			c1,13-6,24-16,32c-4,3-8,4-12,5c18,1,31-16,34-33c1-4-1-7-1.4-11.4C491.6,1117.8,491.4,1117.1,491.2,1116.4z"/>
		<path fill="#00AFEC" stroke="#000000" stroke-width="6" stroke-miterlimit="10" d="M554.5,1156c3.9,1.2,8,2.2,12.3,2.9
			c3.6,0.9,7.6,1.6,12.1,2.1c4.5,0.5,9.1,0.8,13.8,0.8c8.2,0,12.3-3,12.3-9.1c0-2.3-1.2-4.7-3.7-7.1c-2.5-2.4-5.7-5.1-9.5-8
			c-3.8-2.9-7.9-6.2-12.3-9.7c-4.4-3.6-8.5-7.7-12.3-12.3c-3.8-4.6-7-9.8-9.5-15.6c-2.5-5.8-3.7-12.4-3.7-19.9
			c0-8.4,1.5-15.8,4.5-22.2c3-6.4,7.2-11.7,12.5-16c2.7-2.1,5.6-4,8.7-5.6c22.4-10.5,52.4-12.5,71.4,1.5c17,13,23,39,23,62
			c0,2,0,8-2,7c-14-5-24-23-42-19c-2,1-3,2-2,4c18,24,48,47,38.4,79c-0.6,3.7-1.6,7.2-2.8,10.6c-2.5,6.9-6.4,12.8-11.6,17.9
			c-5.3,5.1-12,9.1-20.2,12c-8.2,2.9-17.9,4.4-29.1,4.4c-6.8,0-13-0.3-18.8-0.9c-5.8-0.6-10.9-1.4-15.4-2.3c-5.2-0.9-9.9-2-14.2-3.2
			V1156z M576.9,1188.1c2.5,0.5,5.2,1,8,1.3c2.5,0.4,5.1,0.7,7.9,0.9c2.8,0.3,5.6,0.4,8.4,0.4c5,0,9.8-0.6,14.6-1.7
			c4.7-1.2,8.9-3.1,12.7-5.7c3.7-2.7,6.7-6.1,8.9-10.3c2.2-4.2,3.3-9.3,3.3-15.4c0-5.2-1.3-10.1-3.9-14.7c-2.6-4.6-5.9-9.1-9.9-13.4
			c-4-4.3-8.3-8.4-12.8-12.3c-2.3-2-4.5-3.9-6.6-5.9s-4.2-4-6.2-6c-11.2-8.6-20.2-29.6-5.2-37.6c17-9,37-3,54,4c-7-21-40-17-58-11
			c-4,2-7,5-9,8c-3,6-3,13-1.5,19.4c0.6,2.3,1.6,4.6,2.9,6.8c2.6,4.4,5.9,8.6,9.9,12.8c4,4.2,8.3,8.2,12.8,12.1
			c4.5,3.9,8.8,7.9,12.8,11.9s7.3,8.1,9.9,12.4c2.6,4.3,3.9,8.7,3.9,13.4c0,8.5-2.9,15-8.7,19.5c-5.8,4.5-13.8,6.7-23.9,6.7
			c-6.1,0-11.6-0.4-16.6-1.3c-2.7-0.4-5.3-0.8-7.7-1.3V1188.1z"/>
		<path fill="#FFDC38" stroke="#000000" stroke-width="6" stroke-miterlimit="10" d="M732.3,1033.2h42.7l67.6,178.1h-56.1l-5.9-16
			c0,0-1.5,0-4,0c-25.5,6.6-50.5,29.6-61.5,52.6c-16-13-21-40-46.2-36.6c-2.6,0-4.2,0-4.2,0s3.3-8.8,8.5-22.5
			c1.3-3.4,2.7-7.1,4.2-11.1c1.6-3.8,2.6-8.8,5.6-10.8c22-19,30-45,30.2-71.9c0.4-3.2,0.8-6.4,1.3-9.6c1-6.3,2.5-12.5,5-18.5
			c1.5-4.1,2.9-7.8,4.2-11.2C729,1042,732.3,1033.2,732.3,1033.2z M703.2,1207.1c1.9-1.2,3.9-6.2,5.9-4.2c5,4,8,14,16,11
			c21-7,29-38,53.6-37.3c3.7,0,7,0,9.9,0c5.6,0,9.2,0,9.2,0l5.1,13.4h7.5l-51.5-135.4h-10.1c0,0-5.3,14-12.5,33
			c-0.8,2.1-1.6,4.3-2.5,6.5c-12.4,34.8-10.4,76.8-36.7,104.5L703.2,1207.1z M753.7,1061l41.7,109.2c0,0-5.2,0-13,0
			c-2,0-4.1,0-6.3,0.1c-20.9,3.6-28.9,24.6-45.9,36.6c-7,4-19-3-16-8c13-31,13-66,23.9-96.7c0.8-2.3,1.6-4.5,2.4-6.7
			C747.8,1076.4,753.7,1061,753.7,1061z M765.8,1158.4c-4.6-10.5-7.6-21.5-11.6-32.5c-4,17-8,35-12,52c6-7,13-13,20-17.5
			C764.3,1159.1,765.8,1158.4,765.8,1158.4z"/>
		<path fill="#FAAF4C" stroke="#000000" stroke-width="6" stroke-miterlimit="10" d="M896.2,1039.9c24-1,47-9,71.8-6.7
			c2.5,0,5,0,7.4,0c16.7,0,29.6,0,29.6,0v46.7h-48.1v19.8h47.3v44.3h-47.3v67.3c0,0-25.3,0-42.1,0c-4.2,0-7.9,0-10.5,0
			c-1.1-0.4-3.1-0.4-4.1-0.4c0-20,0-39-3-59c-7-37-10-73-1.6-108.8C896,1041,896.2,1039.9,896.2,1039.9z M933.7,1190
			c0,0,0-4.1,0-10.1c0-3,0-6.6,0-10.4c-0.5-14.5-2.5-29.5,0.5-44.5c0,0,2,0,3.3,0.2c2.3,0,5.6,0,9.4,0c15,0,37.6,0,37.6,0v-6.4
			c0,0-22.5,0-37.6,0c-3.8,0-7,0-9.4,0c-9.3-10.8-9.3-36.8-5.3-50.8c2-6,17-8,28.2-6.9c2.2,0,4.5,0,6.6,0c10.8,0,20.1,0,20.1,0v-6.4
			c0,0-10.5,0-22.7,0c-2.5,0-5,0.1-7.6,0.1c-12.6-0.8-28.6,1.2-34.6,11.2c-5,8-1,19,1,30c7,32,2,63,3.6,94.1H933.7z"/>
		<path fill="#00AFEC" stroke="#000000" stroke-width="6" stroke-miterlimit="10" d="M1057.8,1033.2c0,0,4.8,0,11.2,0
			c11.2-0.3,26.2-4.3,30.2,1.7c8,11.3,13.9,23.4,18.7,36c1.2,3.1,2.3,6.3,3.4,9.6c6,16.4,9,33.4,14,49.3c0.9,3.3,1.9,6.7,2.9,10
			c1,3.3,2,6.7,3.1,10c5,14,14,25,18.4,39c1.3,3.4,2.5,6.5,3.5,9.3c3.1,8.2,5,13.2,5,13.2s-1.6,0-4.2,0
			c-25.8-5.4-33.8,20.6-46.8,36.6c-18-19-33-48-60.9-52.6c-2.5,0-4,0-4,0l-5.9,16h-56.1c0,0,27.6-72.7,47.5-125.2
			c0.9-2.3,1.8-4.6,2.7-6.8c5.7-13.5,10.7-26.5,15.1-40C1057,1035.4,1057.8,1033.2,1057.8,1033.2z M1030,1190l5.1-13.4
			c0,0,7.9,0,19,0c3.7,0,7.8,0,12.1,0.7c2,0.6,5,0.6,7,1.6c16,9,17,33,36,36c5,1,8-4,11-8c2,2,4,5,5,4c4,0,5-6,8-9c-7-4-12-9-14-16
			c-14-41-3-106-42-129c-2,20-13,35-23,51c-1,2.3-2,4.7-3.1,7.2c-13.7,36.1-28.5,74.9-28.5,74.9H1030z M1084.5,1067.4
			c21.7,38.5,17.7,82.5,26.7,126.5c1,4,6,7,5,11c-1,6-9,7-14,3c-13-12-18-34-38.3-37.6c-2.4-0.1-4.8-0.1-7-0.1
			c-11.2,0-19.3,0-19.3,0s7.2-19,15.7-41.1c0.9-2.2,1.8-4.5,2.7-6.7c6.3-17.5,26.3-25.5,27-44
			C1084,1071.6,1084.5,1067.4,1084.5,1067.4z M1090.8,1176.4c-2.7-13.5-5.7-27.5-8.7-41.5c-9,4-11,14-15,21c8,2,15,8,20.2,15.4
			C1089.5,1174.2,1090.8,1176.4,1090.8,1176.4z"/>
		<path fill="#FFDC38" stroke="#000000" stroke-width="6" stroke-miterlimit="10" d="M1176.6,1158.7c0-4.2,0.3-8.1,0.9-11.7
			c0.6-3.6,1.6-6.9,2.8-9.9c1.8-13.2,23.8-29.2,9.8-39.2c-8-6-24,0-28-6c-9-18-1-45,10-56c13-12,43-10,63.4,1.6
			c3.5,1.8,6.7,4,9.6,6.4c2.9,2.4,5.5,5.1,7.7,8c8.3,12,13.3,28,9.5,43c-0.9,3.5-2.1,6.8-3.6,10c-3.1,6.3-6.5,12.4-10.3,18.3
			s-7.2,11.7-10.3,17.4c-3.1,5.7-4.7,11.7-4.7,18.2H1176.6z M1176.6,1166.7h57.1v44.6h-57.1V1166.7z M1212.1,1141.9
			c0-3.2,1.2-6.9,3.5-11.2c2.3-4.3,4.8-8.9,7.6-13.8c2.8-4.9,5.3-9.9,7.6-15.1c1.2-2.6,2-5.1,2.6-7.7s0.9-5.1,0.9-7.5
			c1.9-30.7-34.1-29.7-53.1-18.7c-2,1-1,5-2,8c15-4,37-15,47,3c2,5,2,10,1,15c-2,11-9,20-14.3,29.9c-1.3,2.3-2.5,4.5-3.6,6.6
			c-2.3,4.3-3.5,8.1-3.5,11.5H1212.1z M1217.7,1192.1v-6.1h-25.1v6.1H1217.7z"/>
		<path fill="#3FB34F" stroke="#000000" stroke-width="6" stroke-miterlimit="10" d="M1275.4,1034.8c19.7,5.1,40.7,4.1,60.7-0.9
			c-1,21,8,41,4,63c-2.5,15-9.9,28.6-11.8,43.5c-0.4,3-0.6,6.1-0.5,9.3c-0.7,20.2-28.7,6.2-43.7,9.2c0-2,0-5-0.2-7.4
			c-0.2-2.3-0.4-5-0.6-8.2c-0.2-3.1-0.5-6.6-0.8-10.4c-0.2-2.2-0.3-4.4-0.5-6.7c1-27.3,1-54.3-5.6-80.3
			C1275.7,1038.9,1275.4,1034.8,1275.4,1034.8z M1277.3,1166.7c18.9,0.2,37.9,7.2,56.9,2.2c-0.6,3-0.8,6.4-0.7,10.1
			s0.5,7.6,1.1,11.6c3.6,23.3,11.6,68.3-14.4,68.3c-21-1-19-38-41-50c-1.5-0.8-2.4-2.3-2.9-4.4c-1.4-6.3,0.9-17.4,1-25.9
			C1277.3,1171.8,1277.3,1166.7,1277.3,1166.7z M1321.9,1216.7c2.3-16.8-16.7-19.8-27.7-24.8c1,13,16,16,23.7,23
			C1320.3,1216.2,1321.9,1216.7,1321.9,1216.7z M1309,1141.9c0.1-6-1.9-12,1.1-17c10-17,18-35,8-54c0-1-3,0-5,0c9,21-6,38-10,58
			c0,4,0,9-0.5,13L1309,1141.9z"/>
	</g>
</g>
</svg>
